<svg xmlns="http://www.w3.org/2000/svg" xmlns:xlink="http://www.w3.org/1999/xlink" id="Layer_1" width="100" height="71.86" x="0" y="0" enable-background="new 0 0 100 71.86" version="1.0" viewBox="0 0 100 71.86" xml:space="preserve"><path d="M50,25.057c-8.875,0-16.096,7.22-16.096,16.096c0,8.875,7.221,16.096,16.096,16.096c8.876,0,16.096-7.221,16.096-16.096	C66.096,32.277,58.876,25.057,50,25.057z"/><path d="M86.986,10.445H70.373C70.373,4.677,65.696,0,59.928,0H40.072c-5.769,0-10.445,4.677-10.445,10.445H13.014	C5.826,10.445,0,16.272,0,23.459v35.387C0,66.034,5.826,71.86,13.014,71.86h73.973c7.188,0,13.014-5.826,13.014-13.014V23.459	C100,16.272,94.174,10.445,86.986,10.445z M50,64.098c-12.652,0-22.945-10.294-22.945-22.945c0-12.652,10.293-22.945,22.945-22.945	s22.945,10.293,22.945,22.945C72.945,53.804,62.652,64.098,50,64.098z"/></svg>