<svg xmlns="http://www.w3.org/2000/svg" xmlns:xlink="http://www.w3.org/1999/xlink" id="Layer_1" width="100" height="74.489" x="0" y="0" enable-background="new 0 0 100 74.489" version="1.0" viewBox="0 0 100 74.489" xml:space="preserve"><path d="M91.236,1.479C73.359,18.953,55.482,36.427,37.605,53.9c-6.441-6.295-12.881-12.592-19.322-18.888	c-4.715-4.609-11.948,2.614-7.229,7.229c7.646,7.474,15.292,14.947,22.937,22.421c2.009,1.963,5.219,1.962,7.228,0	c4.65-4.546,9.302-9.092,13.951-13.637V69.81H4.679V19.318H55.17v12.52l4.679-4.678v-9.75c0-1.53-1.24-2.77-2.771-2.77H2.772	C1.241,14.64,0,15.88,0,17.41v54.307c0,1.531,1.241,2.771,2.772,2.771h54.306c1.53,0,2.771-1.24,2.771-2.771V46.452	C72.721,33.87,85.592,21.288,98.464,8.707C103.184,4.093,95.951-3.13,91.236,1.479z"/></svg>