<svg xmlns="http://www.w3.org/2000/svg" xmlns:svg="http://www.w3.org/2000/svg" id="Layer_1" width="100" height="85.416" x="0" y="0" enable-background="new 0 0 100 85.416" version="1.0" viewBox="0 0 100 85.416" xml:space="preserve"><metadata id="metadata25"/><g id="g3" fill="#939393" fill-opacity="1"><path id="path5" fill="#939393" fill-opacity="1" d="M60.082,20.987H39.918c-3.231,0-5.851,2.618-5.851,5.85v27.44c0,3.231,2.62,5.852,5.851,5.852h0.033v19.436 c0,3.231,2.546,5.852,5.689,5.852h8.722c3.14,0,5.688-2.62,5.688-5.852V60.129h0.032c3.231,0,5.851-2.62,5.851-5.852v-27.44 C65.932,23.605,63.313,20.987,60.082,20.987z"/><circle id="circle7" cx="50" cy="9.55" r="9.55" fill="#939393" fill-opacity="1"/></g><g id="g9" fill="#939393" fill-opacity="1"><path id="path11" fill="#939393" fill-opacity="1" d="M94.986,23.268H77.708c-2.771,0-5.014,2.245-5.014,5.014v23.514c0,2.771,2.243,5.016,5.014,5.016h0.028v16.654 c0,2.77,2.182,5.014,4.873,5.014h7.475c2.691,0,4.874-2.244,4.874-5.014V56.811h0.027c2.771,0,5.015-2.245,5.015-5.016V28.281 C100,25.513,97.756,23.268,94.986,23.268z"/><circle id="circle13" cx="86.347" cy="13.469" r="8.184" fill="#939393" fill-opacity="1"/></g><g id="g15" fill="#939393" fill-opacity="1"><path id="path17" fill="#939393" fill-opacity="1" d="M22.292,23.268H5.014C2.245,23.268,0,25.513,0,28.281v23.514c0,2.771,2.245,5.016,5.014,5.016h0.028v16.654 c0,2.77,2.184,5.014,4.874,5.014h7.474c2.692,0,4.874-2.244,4.874-5.014V56.811h0.028c2.769,0,5.014-2.245,5.014-5.016V28.281 C27.305,25.513,25.06,23.268,22.292,23.268z"/><circle id="circle19" cx="13.653" cy="13.469" r="8.183" fill="#939393" fill-opacity="1"/></g></svg>