<svg xmlns="http://www.w3.org/2000/svg" xmlns:svg="http://www.w3.org/2000/svg" id="Layer_1" width="100" height="63.145" x="0" y="0" enable-background="new 0 0 100 63.145" version="1.0" viewBox="0 0 100 63.145" xml:space="preserve"><metadata id="metadata11"/><path id="path3" fill="#939393" fill-opacity="1" d="M98.706,9.805C82.471,21.644,66.235,33.482,50.001,45.321L50,45.32l-0.001,0.001C33.765,33.482,17.529,21.644,1.294,9.805 C0.751,9.409,0,9.946,0,10.548c0,17.246,0,34.491,0,51.737c0,0.468,0.392,0.859,0.86,0.859c16.379,0,32.759,0,49.14,0 c16.38,0,32.761,0,49.14,0c0.469,0,0.86-0.392,0.86-0.859c0-17.246,0-34.492,0-51.737C100,9.946,99.249,9.409,98.706,9.805z"/><path id="path5" fill="#939393" fill-opacity="1" d="M0.426,1.603c16.38,11.943,32.76,23.887,49.141,35.831c0.111,0.082,0.272,0.122,0.434,0.122s0.322-0.04,0.434-0.122 C66.814,25.489,83.194,13.546,99.574,1.603C100.231,1.123,100.058,0,99.14,0C82.76,0,66.379,0,50,0S17.24,0,0.86,0 C-0.058,0-0.231,1.123,0.426,1.603z"/></svg>